# xmcd
#
# Track frame offsets:
#	150
#	13801
#	26370
#	41140
#	52970
#	66297
#	83009
#	98209
#	112388
#	125771
#	139719
#	155423
#	171260
#
# Disc length: 2564 seconds
#
# Revision: 0
# Processed by: cddbd v1.4PL0 Copyright (c) Steve Scherf et al.
# Submitted via: dBpowerAMP V4.0
#
DISCID=b30a020d
DTITLE=Holly Wynnette - My Future Ex-Boyfriend
DYEAR=2002
DGENRE=Country
TTITLE0=My Future Ex-Boyfriend
TTITLE1=Do You Wanna Dance With Me
TTITLE2=Don't Say Goodbye
TTITLE3=I (Who Have Nothing)
TTITLE4=Hypnotized
TTITLE5=If You Were Mine
TTITLE6=Come Lay It On Me
TTITLE7=Is This Love
TTITLE8=You Can't Do That
TTITLE9=Spotlight
TTITLE10=I'm In Love
TTITLE11=Love Where You Are
TTITLE12=Faithfully
EXTD=Hit Pros Records
EXTT0=
EXTT1=
EXTT2=
EXTT3=
EXTT4=
EXTT5=
EXTT6=
EXTT7=
EXTT8=
EXTT9=
EXTT10=
EXTT11=
EXTT12=
PLAYORDER=
